<?xml version="1.0" encoding="UTF-8"?>
<svg id="Layer_1" xmlns="http://www.w3.org/2000/svg" version="1.1" viewBox="0 0 24 24">
  <!-- Generator: Adobe Illustrator 30.1.0, SVG Export Plug-In . SVG Version: 2.1.1 Build 136)  -->
  <path d="M21.3,5.3c-.2,0-.3-.1-.3-.3V1.5c0-.2.1-.3.3-.3s.3.1.3.3v3.4c0,.2-.1.3-.3.3Z"/>
  <path d="M17.6,4.9c-.1-.2-.4-.4-.6-.5,0,0,0,0,0,0-.3,0-.6,0-.9.2-.3.2-.4.5-.4.8,0,.2,0,.5,0,.7,0,.5-.3,1-.6,1.5-.5.8-1.2,1.3-1.8,1.5-.2,0-.2.3-.1.4,0,.2.3.2.4.1.6-.3,1.4-.8,2-1.8.3-.5.6-1.1.7-1.7,0-.3,0-.6,0-.8,0-.1,0-.3.2-.3.1,0,.2-.1.4,0,0,0,0,0,0,0,.1,0,.2.1.3.2.1.1.1.3,0,.5l-.7,2.5h0c-.3,1.5-2.4,2.6-2.5,2.6h-.2c0,0,.8,11.4.8,11.4,0,0,0,.4-.4.6-.3.1-.7,0-.9-.3l-1-7.9c0-.2-.2-.3-.3-.3h0c-.2,0-.3.1-.3.3l-.9,7.7c0,.3-.4.5-.7.5-.2,0-.3,0-.4-.2-.1-.1-.2-.3-.2-.5l.6-11.3h-.2c-1.5-.7-2.2-2.2-2.6-3.3-.4-1-.5-1.7-.5-2.1,0-.2,0-.4.2-.5,0,0,.1,0,.2,0,.2,0,.5,0,.6.3,0,0,0,0,0,0,0,.3.6,2.5.7,2.6.4,1.5,2,1.9,2.1,2,.2,0,.3,0,.4-.2,0-.2,0-.3-.2-.4,0,0-1.3-.3-1.6-1.5-.2-.6-.6-2.3-.7-2.5,0,0,0-.1,0-.1-.2-.5-.7-.7-1.2-.7-.2,0-.3,0-.5.2-.4.2-.5.7-.5,1.1,0,.7.3,1.5.6,2.3.6,1.7,1.6,2.9,2.8,3.5l-.6,10.8c0,.4.1.7.4,1,.2.3.6.4.9.4.6,0,1.1-.4,1.3-1h0s.6-5.3.6-5.3l.7,5.6h0c.3.5.8.8,1.2.8s.4,0,.5-.1c.6-.3.7-1,.7-1.1h0s-.8-11-.8-11c.6-.3,2.3-1.4,2.6-2.9l.7-2.5c.1-.4,0-.7-.2-1Z"/>
  <path d="M12,4.2c-1.4,0-2.5,1.1-2.5,2.5s1.1,2.5,2.5,2.5,2.5-1.1,2.5-2.5-1.1-2.5-2.5-2.5ZM12,8.6c-1,0-1.9-.8-1.9-1.9s.8-1.9,1.9-1.9,1.9.8,1.9,1.9-.8,1.9-1.9,1.9Z"/>
  <g>
    <path d="M4.1,3v.6H1.4c-.2,0-.3-.1-.3-.3s.1-.3.3-.3h2.8Z"/>
    <rect x="5" y="3" width="14.1" height=".6"/>
    <path d="M22.9,3.3c0,.2-.1.3-.3.3h-2.8v-.6h2.8c.2,0,.3.1.3.3Z"/>
  </g>
  <path d="M4.7.5h-.3c-.5,0-.9.4-.9.9v3.9c0,.5.4.9.9.9h.3c.5,0,.9-.4.9-.9V1.4c0-.5-.4-.9-.9-.9ZM5,5.3c0,.1-.1.3-.3.3h-.3c-.1,0-.3-.1-.3-.3V1.4c0-.1.1-.3.3-.3h.3c.1,0,.3.1.3.3v3.9Z"/>
  <path d="M2.8,5.3c-.2,0-.3-.1-.3-.3V1.5c0-.2.1-.3.3-.3s.3.1.3.3v3.4c0,.2-.1.3-.3.3Z"/>
  <path d="M19.6.4h-.3c-.5,0-.9.4-.9.9v3.9c0,.5.4.9.9.9h.3c.5,0,.9-.4.9-.9V1.3c0-.5-.4-.9-.9-.9ZM19.9,5.2c0,.1-.1.3-.3.3h-.3c-.1,0-.3-.1-.3-.3V1.3c0-.1.1-.3.3-.3h.3c.1,0,.3.1.3.3v3.9Z"/>
</svg>