<svg xmlns="http://www.w3.org/2000/svg" viewBox="0 0 512 512">
  <defs>
    <linearGradient id="bg" x1="54" y1="24" x2="470" y2="500" gradientUnits="userSpaceOnUse">
      <stop offset="0" stop-color="#12273d"/>
      <stop offset="1" stop-color="#071221"/>
    </linearGradient>
    <radialGradient id="glow" cx="0" cy="0" r="1" gradientUnits="userSpaceOnUse" gradientTransform="translate(200 130) rotate(48) scale(280)">
      <stop offset="0" stop-color="#c8f53f" stop-opacity="0.2"/>
      <stop offset="1" stop-color="#c8f53f" stop-opacity="0"/>
    </radialGradient>
    <linearGradient id="ring" x1="84" y1="82" x2="428" y2="440" gradientUnits="userSpaceOnUse">
      <stop offset="0" stop-color="#c8f53f"/>
      <stop offset="1" stop-color="#60b4ff"/>
    </linearGradient>
  </defs>

  <rect width="512" height="512" rx="146" fill="url(#bg)"/>
  <rect width="512" height="512" rx="146" fill="url(#glow)"/>
  <rect x="44" y="44" width="424" height="424" rx="124" fill="none" stroke="url(#ring)" stroke-opacity="0.4" stroke-width="4"/>

  <circle cx="256" cy="215" r="82" fill="#f0c7a2"/>
  <path d="M178 214c4-52 34-84 78-84s74 32 78 84c-20-10-46-16-78-16s-58 6-78 16z" fill="#0d162a"/>
  <path d="M224 252c10 10 54 10 64 0" stroke="#182a42" stroke-width="7" stroke-linecap="round"/>
  <circle cx="228" cy="221" r="6" fill="#16243a"/>
  <circle cx="284" cy="221" r="6" fill="#16243a"/>

  <path d="M152 406c10-66 52-108 104-108s94 42 104 108" fill="#1f334f"/>
  <path d="M176 406c12-44 38-72 80-72s68 28 80 72" fill="#29476a"/>
  <path d="M190 406c8-24 30-38 66-38s58 14 66 38" fill="#c8f53f" fill-opacity="0.2"/>
</svg>
