<svg xmlns="http://www.w3.org/2000/svg" viewBox="0 0 512 512">
  <defs>
    <linearGradient id="bg" x1="48" y1="24" x2="470" y2="500" gradientUnits="userSpaceOnUse">
      <stop offset="0" stop-color="#11263c"/>
      <stop offset="1" stop-color="#071322"/>
    </linearGradient>
    <radialGradient id="glow" cx="0" cy="0" r="1" gradientUnits="userSpaceOnUse" gradientTransform="translate(170 120) rotate(36) scale(260)">
      <stop offset="0" stop-color="#c8f53f" stop-opacity="0.22"/>
      <stop offset="1" stop-color="#c8f53f" stop-opacity="0"/>
    </radialGradient>
    <linearGradient id="ring" x1="104" y1="90" x2="420" y2="430" gradientUnits="userSpaceOnUse">
      <stop offset="0" stop-color="#c8f53f"/>
      <stop offset="1" stop-color="#60b4ff"/>
    </linearGradient>
  </defs>

  <rect width="512" height="512" rx="146" fill="url(#bg)"/>
  <rect width="512" height="512" rx="146" fill="url(#glow)"/>
  <rect x="44" y="44" width="424" height="424" rx="124" fill="none" stroke="url(#ring)" stroke-opacity="0.4" stroke-width="4"/>

  <circle cx="256" cy="220" r="82" fill="#f0c8a0"/>
  <path d="M176 220c4-56 34-90 80-90s76 34 80 90c-16-10-34-14-54-14s-40 5-60 14c-18-8-31-8-46 0z" fill="#111a2e"/>
  <rect x="214" y="245" width="84" height="11" rx="5" fill="#1b2a45" opacity="0.35"/>
  <circle cx="228" cy="222" r="6" fill="#18243a"/>
  <circle cx="284" cy="222" r="6" fill="#18243a"/>

  <path d="M156 402c0-64 44-110 100-110s100 46 100 110" fill="#1f334f"/>
  <path d="M176 402c0-52 35-86 80-86s80 34 80 86" fill="#2b4669"/>
  <path d="M206 402v-40c0-20 22-36 50-36s50 16 50 36v40" fill="#c8f53f" fill-opacity="0.22"/>
</svg>
