<svg xmlns="http://www.w3.org/2000/svg" viewBox="0 0 512 512">
  <defs>
    <linearGradient id="bg" x1="58" y1="28" x2="466" y2="498" gradientUnits="userSpaceOnUse">
      <stop offset="0" stop-color="#0f2236"/>
      <stop offset="1" stop-color="#06111f"/>
    </linearGradient>
    <radialGradient id="glow" cx="0" cy="0" r="1" gradientUnits="userSpaceOnUse" gradientTransform="translate(340 150) rotate(145) scale(240)">
      <stop offset="0" stop-color="#60b4ff" stop-opacity="0.24"/>
      <stop offset="1" stop-color="#60b4ff" stop-opacity="0"/>
    </radialGradient>
    <linearGradient id="ring" x1="80" y1="104" x2="438" y2="428" gradientUnits="userSpaceOnUse">
      <stop offset="0" stop-color="#79d0ff"/>
      <stop offset="1" stop-color="#c8f53f"/>
    </linearGradient>
  </defs>

  <rect width="512" height="512" rx="146" fill="url(#bg)"/>
  <rect width="512" height="512" rx="146" fill="url(#glow)"/>
  <rect x="44" y="44" width="424" height="424" rx="124" fill="none" stroke="url(#ring)" stroke-opacity="0.38" stroke-width="4"/>

  <circle cx="256" cy="220" r="80" fill="#e8bc96"/>
  <path d="M182 214c8-50 36-78 74-78s66 28 74 78l-8 30h-132z" fill="#0b1528"/>
  <circle cx="228" cy="225" r="6" fill="#16233a"/>
  <circle cx="284" cy="225" r="6" fill="#16233a"/>
  <rect x="220" y="248" width="72" height="9" rx="4" fill="#243856" opacity="0.35"/>
  <rect x="206" y="210" width="100" height="30" rx="15" fill="#60b4ff" fill-opacity="0.18" stroke="#9bd7ff" stroke-opacity="0.4" stroke-width="2"/>

  <path d="M150 406c8-64 50-108 106-108s98 44 106 108" fill="#1d304c"/>
  <path d="M176 406c10-46 40-74 80-74s70 28 80 74" fill="#243f62"/>
  <path d="M214 406v-34c0-16 18-30 42-30s42 14 42 30v34" fill="#60b4ff" fill-opacity="0.2"/>
</svg>
