<svg xmlns="http://www.w3.org/2000/svg" viewBox="0 0 512 512">
  <defs>
    <linearGradient id="bg" x1="56" y1="28" x2="468" y2="500" gradientUnits="userSpaceOnUse">
      <stop offset="0" stop-color="#102439"/>
      <stop offset="1" stop-color="#061120"/>
    </linearGradient>
    <radialGradient id="glow" cx="0" cy="0" r="1" gradientUnits="userSpaceOnUse" gradientTransform="translate(330 160) rotate(148) scale(250)">
      <stop offset="0" stop-color="#60b4ff" stop-opacity="0.2"/>
      <stop offset="1" stop-color="#60b4ff" stop-opacity="0"/>
    </radialGradient>
    <linearGradient id="ring" x1="100" y1="84" x2="422" y2="438" gradientUnits="userSpaceOnUse">
      <stop offset="0" stop-color="#7ad1ff"/>
      <stop offset="1" stop-color="#c8f53f"/>
    </linearGradient>
  </defs>

  <rect width="512" height="512" rx="146" fill="url(#bg)"/>
  <rect width="512" height="512" rx="146" fill="url(#glow)"/>
  <rect x="44" y="44" width="424" height="424" rx="124" fill="none" stroke="url(#ring)" stroke-opacity="0.38" stroke-width="4"/>

  <path d="M168 240c4-74 40-112 88-112s84 38 88 112v10h-176z" fill="#121f35"/>
  <circle cx="256" cy="226" r="76" fill="#f2ccb0"/>
  <path d="M180 232c8-52 34-82 76-82s68 30 76 82l-10 23h-132z" fill="#1b2b45"/>
  <circle cx="228" cy="226" r="6" fill="#17233a"/>
  <circle cx="284" cy="226" r="6" fill="#17233a"/>
  <path d="M228 254c8 8 48 8 56 0" stroke="#243959" stroke-width="6" stroke-linecap="round"/>

  <path d="M154 406c8-60 46-100 102-100s94 40 102 100" fill="#203554"/>
  <path d="M176 406c8-42 38-68 80-68s72 26 80 68" fill="#2b496f"/>
  <path d="M200 406c10-22 30-34 56-34s46 12 56 34" fill="#60b4ff" fill-opacity="0.2"/>
</svg>
