<svg xmlns="http://www.w3.org/2000/svg" viewBox="0 0 512 512">
  <defs>
    <linearGradient id="bg" x1="60" y1="20" x2="470" y2="500" gradientUnits="userSpaceOnUse">
      <stop offset="0" stop-color="#10253a"/>
      <stop offset="1" stop-color="#06111f"/>
    </linearGradient>
    <radialGradient id="glow" cx="0" cy="0" r="1" gradientUnits="userSpaceOnUse" gradientTransform="translate(184 126) rotate(38) scale(270)">
      <stop offset="0" stop-color="#c8f53f" stop-opacity="0.2"/>
      <stop offset="1" stop-color="#c8f53f" stop-opacity="0"/>
    </radialGradient>
    <linearGradient id="ring" x1="92" y1="90" x2="430" y2="432" gradientUnits="userSpaceOnUse">
      <stop offset="0" stop-color="#c8f53f"/>
      <stop offset="1" stop-color="#62b6ff"/>
    </linearGradient>
  </defs>

  <rect width="512" height="512" rx="146" fill="url(#bg)"/>
  <rect width="512" height="512" rx="146" fill="url(#glow)"/>
  <rect x="44" y="44" width="424" height="424" rx="124" fill="none" stroke="url(#ring)" stroke-opacity="0.38" stroke-width="4"/>

  <path d="M172 238c0-70 34-108 84-108s84 38 84 108v14h-168z" fill="#182742"/>
  <circle cx="256" cy="224" r="76" fill="#eec29f"/>
  <path d="M182 226c8-50 34-80 74-80s66 30 74 80l-10 24h-128z" fill="#101c30"/>
  <circle cx="228" cy="225" r="6" fill="#18243b"/>
  <circle cx="284" cy="225" r="6" fill="#18243b"/>
  <rect x="198" y="206" width="116" height="30" rx="15" fill="#c8f53f" fill-opacity="0.18" stroke="#dfff8a" stroke-opacity="0.38" stroke-width="2"/>

  <path d="M156 406c8-60 46-100 100-100s92 40 100 100" fill="#203655"/>
  <path d="M178 406c8-42 36-68 78-68s70 26 78 68" fill="#2a476c"/>
  <path d="M204 406c9-20 28-32 52-32s43 12 52 32" fill="#c8f53f" fill-opacity="0.2"/>
</svg>
