<svg xmlns="http://www.w3.org/2000/svg" viewBox="0 0 512 512">
  <defs>
    <linearGradient id="bg" x1="56" y1="26" x2="468" y2="500" gradientUnits="userSpaceOnUse">
      <stop offset="0" stop-color="#12273d"/>
      <stop offset="1" stop-color="#061220"/>
    </linearGradient>
    <radialGradient id="glow" cx="0" cy="0" r="1" gradientUnits="userSpaceOnUse" gradientTransform="translate(320 130) rotate(150) scale(260)">
      <stop offset="0" stop-color="#60b4ff" stop-opacity="0.24"/>
      <stop offset="1" stop-color="#60b4ff" stop-opacity="0"/>
    </radialGradient>
    <linearGradient id="ring" x1="96" y1="84" x2="424" y2="436" gradientUnits="userSpaceOnUse">
      <stop offset="0" stop-color="#7dd2ff"/>
      <stop offset="1" stop-color="#c8f53f"/>
    </linearGradient>
  </defs>

  <rect width="512" height="512" rx="146" fill="url(#bg)"/>
  <rect width="512" height="512" rx="146" fill="url(#glow)"/>
  <rect x="44" y="44" width="424" height="424" rx="124" fill="none" stroke="url(#ring)" stroke-opacity="0.4" stroke-width="4"/>

  <path d="M164 236c0-74 36-112 92-112s92 38 92 112v10h-184z" fill="#131f35"/>
  <circle cx="256" cy="224" r="78" fill="#f1c9a8"/>
  <path d="M178 230c6-54 34-86 78-86s72 32 78 86l-10 26h-136z" fill="#1a2740"/>
  <circle cx="228" cy="226" r="6" fill="#18263d"/>
  <circle cx="284" cy="226" r="6" fill="#18263d"/>
  <path d="M226 255c9 8 51 8 60 0" stroke="#253a59" stroke-width="6" stroke-linecap="round"/>

  <path d="M154 406c8-64 48-106 102-106s94 42 102 106" fill="#203452"/>
  <path d="M174 406c10-46 38-74 82-74s72 28 82 74" fill="#2d4a70"/>
  <path d="M206 406v-30c0-18 22-32 50-32s50 14 50 32v30" fill="#60b4ff" fill-opacity="0.2"/>
</svg>
